<svg width="21" height="20" viewBox="0 0 21 20" fill="none" xmlns="http://www.w3.org/2000/svg">
<path d="M10.0827 18.1248C5.37435 18.1248 1.54102 14.2915 1.54102 9.58317C1.54102 4.87484 5.37435 1.0415 10.0827 1.0415C14.791 1.0415 18.6243 4.87484 18.6243 9.58317C18.6243 14.2915 14.791 18.1248 10.0827 18.1248ZM10.0827 2.2915C6.05768 2.2915 2.79102 5.5665 2.79102 9.58317C2.79102 13.5998 6.05768 16.8748 10.0827 16.8748C14.1077 16.8748 17.3743 13.5998 17.3743 9.58317C17.3743 5.5665 14.1077 2.2915 10.0827 2.2915Z" fill="white"/>
<path d="M18.8326 18.9585C18.6742 18.9585 18.5159 18.9002 18.3909 18.7752L16.7242 17.1085C16.4826 16.8669 16.4826 16.4669 16.7242 16.2252C16.9659 15.9835 17.3659 15.9835 17.6076 16.2252L19.2742 17.8919C19.5159 18.1335 19.5159 18.5335 19.2742 18.7752C19.1492 18.9002 18.9909 18.9585 18.8326 18.9585Z" fill="white"/>
</svg>