<svg width="145" height="125" viewBox="0 0 145 125" fill="none" xmlns="http://www.w3.org/2000/svg">
<path d="M62.1225 18.3723C66.7479 10.4065 78.2521 10.4065 82.8775 18.3723L134.034 106.474C138.679 114.474 132.907 124.5 123.656 124.5H21.344C12.0932 124.5 6.32135 114.474 10.9665 106.474L62.1225 18.3723Z" fill="#14151A"/>
<path fill-rule="evenodd" clip-rule="evenodd" d="M87.5217 69.4847C88.8261 70.7977 88.8261 72.9264 87.5217 74.2394L68.3719 93.5153C67.0675 94.8282 64.9527 94.8282 63.6483 93.5153L56.4783 86.298C55.1739 84.9851 55.1739 82.8563 56.4783 81.5433C57.7827 80.2304 59.8975 80.2304 61.2019 81.5433L66.0101 86.3832L82.7981 69.4847C84.1025 68.1718 86.2173 68.1718 87.5217 69.4847Z" fill="#D5FF5F"/>
</svg>
