<svg width="145" height="124" viewBox="0 0 145 124" fill="none" xmlns="http://www.w3.org/2000/svg">
<path d="M62.1225 17.8723C66.7479 9.90647 78.2521 9.90647 82.8775 17.8723L134.034 105.974C138.679 113.974 132.907 124 123.656 124H21.344C12.0932 124 6.32135 113.974 10.9665 105.974L62.1225 17.8723Z" fill="#14151A"/>
<path d="M84.932 72.307V69.932C84.932 64.802 83.697 58 73 58C62.303 58 61.068 64.802 61.068 69.932V72.307C55.748 72.972 54 75.67 54 82.301V85.835C54 93.625 56.375 96 64.165 96H81.835C89.625 96 92 93.625 92 85.835V82.301C92 75.67 90.252 72.972 84.932 72.307ZM73 89.806C69.827 89.806 67.262 87.222 67.262 84.068C67.262 80.895 69.846 78.33 73 78.33C76.154 78.33 78.738 80.914 78.738 84.068C78.738 87.241 76.173 89.806 73 89.806ZM64.165 72.136C64.013 72.136 63.88 72.136 63.728 72.136V69.932C63.728 64.365 65.305 60.66 73 60.66C80.695 60.66 82.272 64.365 82.272 69.932V72.155C82.12 72.155 81.987 72.155 81.835 72.155H64.165V72.136Z" fill="#D5FF5F"/>
<path fill-rule="evenodd" clip-rule="evenodd" d="M75.8221 82.1894C76.0593 82.4419 76.0593 82.8512 75.8221 83.1037L72.3403 86.8106C72.1032 87.0631 71.7187 87.0631 71.4815 86.8106L70.1779 85.4227C69.9407 85.1702 69.9407 84.7608 70.1779 84.5083C70.415 84.2558 70.7995 84.2558 71.0367 84.5083L71.9109 85.4391L74.9633 82.1894C75.2005 81.9369 75.585 81.9369 75.8221 82.1894Z" fill="#D5FF5F"/>
</svg>
