<svg width="20" height="20" viewBox="0 0 20 20" fill="none" xmlns="http://www.w3.org/2000/svg">
<path d="M18.3332 15.2748C18.3332 15.5748 18.2664 15.8832 18.1245 16.1832C17.9826 16.4832 17.799 16.7665 17.557 17.0332C17.1481 17.4832 16.6974 17.8082 16.1883 18.0165C15.6875 18.2248 15.1451 18.3332 14.5608 18.3332C13.7096 18.3332 12.7999 18.1332 11.8401 17.7248C10.8803 17.3165 9.92055 16.7665 8.96912 16.0748C8.00935 15.3748 7.09965 14.5998 6.23168 13.7415C5.37206 12.8748 4.5959 11.9665 3.90319 11.0165C3.21883 10.0665 2.66801 9.1165 2.26741 8.17484C1.8668 7.22484 1.6665 6.3165 1.6665 5.44984C1.6665 4.88317 1.76665 4.3415 1.96695 3.8415C2.16725 3.33317 2.4844 2.8665 2.92673 2.44984C3.46086 1.92484 4.04507 1.6665 4.66266 1.6665C4.89635 1.6665 5.13003 1.7165 5.33868 1.8165C5.55567 1.9165 5.74763 2.0665 5.89785 2.28317L7.83409 5.00817C7.98431 5.2165 8.09281 5.40817 8.16792 5.5915C8.24303 5.7665 8.28476 5.9415 8.28476 6.09984C8.28476 6.29984 8.22634 6.49984 8.1095 6.6915C8.00101 6.88317 7.84243 7.08317 7.64213 7.28317L7.00785 7.9415C6.91604 8.03317 6.87431 8.1415 6.87431 8.27484C6.87431 8.3415 6.88266 8.39984 6.89935 8.4665C6.92439 8.53317 6.94943 8.58317 6.96612 8.63317C7.11635 8.90817 7.37507 9.2665 7.74228 9.69984C8.11785 10.1332 8.51845 10.5748 8.95243 11.0165C9.40311 11.4582 9.83709 11.8665 10.2794 12.2415C10.7134 12.6082 11.0723 12.8582 11.356 13.0082C11.3978 13.0248 11.4478 13.0498 11.5063 13.0748C11.573 13.0998 11.6398 13.1082 11.7149 13.1082C11.8568 13.1082 11.9653 13.0582 12.0571 12.9665L12.6914 12.3415C12.9 12.1332 13.1003 11.9748 13.2923 11.8748C13.4842 11.7582 13.6762 11.6998 13.8848 11.6998C14.0434 11.6998 14.2103 11.7332 14.3939 11.8082C14.5775 11.8832 14.7695 11.9915 14.9781 12.1332L17.7406 14.0915C17.9576 14.2415 18.1078 14.4165 18.1996 14.6248C18.2831 14.8332 18.3332 15.0415 18.3332 15.2748Z" stroke="#151515" stroke-width="1.5" stroke-miterlimit="10"/>
</svg>
