<svg width="21" height="20" viewBox="0 0 21 20" fill="none" xmlns="http://www.w3.org/2000/svg">
<path d="M10.5 3.625C14.0155 3.625 16.875 6.48448 16.875 10C16.875 13.5155 14.0155 16.375 10.5 16.375C6.98448 16.375 4.125 13.5155 4.125 10C4.125 6.48448 6.98448 3.625 10.5 3.625ZM10.5 3.875C7.12386 3.875 4.375 6.62386 4.375 10C4.375 13.3761 7.12386 16.125 10.5 16.125C13.8761 16.125 16.625 13.3761 16.625 10C16.625 6.62386 13.8761 3.875 10.5 3.875Z" fill="#14151A" stroke="#14151A"/>
<path d="M10.5 7.375C11.9489 7.375 13.125 8.55114 13.125 10C13.125 11.4489 11.9489 12.625 10.5 12.625C9.05114 12.625 7.875 11.4489 7.875 10C7.875 8.55114 9.05114 7.375 10.5 7.375ZM10.5 7.625C9.19052 7.625 8.125 8.69052 8.125 10C8.125 11.3095 9.19052 12.375 10.5 12.375C11.8095 12.375 12.875 11.3095 12.875 10C12.875 8.69052 11.8095 7.625 10.5 7.625Z" fill="#14151A" stroke="#14151A"/>
<path d="M10.5 1.5415C10.5301 1.5415 10.5613 1.55395 10.5869 1.57959C10.6126 1.60523 10.625 1.63636 10.625 1.6665V3.3335C10.6249 3.36354 10.6125 3.39486 10.5869 3.42041C10.5613 3.44594 10.5301 3.4585 10.5 3.4585C10.4699 3.4585 10.4387 3.44594 10.4131 3.42041C10.3875 3.39486 10.3751 3.36354 10.375 3.3335V1.6665C10.375 1.63636 10.3874 1.60523 10.4131 1.57959C10.4387 1.55395 10.4699 1.5415 10.5 1.5415Z" fill="#14151A" stroke="#14151A"/>
<path d="M3.83341 10.625H2.16675C1.82508 10.625 1.54175 10.3417 1.54175 10C1.54175 9.65833 1.82508 9.375 2.16675 9.375H3.83341C4.17508 9.375 4.45841 9.65833 4.45841 10C4.45841 10.3417 4.17508 10.625 3.83341 10.625Z" fill="#14151A"/>
<path d="M10.5 18.9582C10.1583 18.9582 9.875 18.6748 9.875 18.3332V16.6665C9.875 16.3248 10.1583 16.0415 10.5 16.0415C10.8417 16.0415 11.125 16.3248 11.125 16.6665V18.3332C11.125 18.6748 10.8417 18.9582 10.5 18.9582Z" fill="#14151A"/>
<path d="M18.8334 10.625H17.1667C16.8251 10.625 16.5417 10.3417 16.5417 10C16.5417 9.65833 16.8251 9.375 17.1667 9.375H18.8334C19.1751 9.375 19.4584 9.65833 19.4584 10C19.4584 10.3417 19.1751 10.625 18.8334 10.625Z" fill="#14151A"/>
</svg>
